<svg xmlns="http://www.w3.org/2000/svg" width="500" zoomAndPan="magnify"
     viewBox="0 0 375 374.999991" height="500" preserveAspectRatio="xMidYMid meet" version="1.0">
    <defs>
        <clipPath id="631bff9d36">
            <path
                d="M 16.457031 16.457031 L 358.457031 16.457031 L 358.457031 358.457031 L 16.457031 358.457031 Z M 16.457031 16.457031 "
                clip-rule="nonzero"/>
        </clipPath>
    </defs>
    <g clip-path="url(#631bff9d36)">
        <path fill="#000000"
              d="M 308.382812 66.542969 C 276.082031 34.242188 233.140625 16.457031 187.460938 16.457031 C 141.785156 16.457031 98.839844 34.242188 66.542969 66.542969 C 34.242188 98.839844 16.457031 141.785156 16.457031 187.460938 C 16.457031 233.140625 34.242188 276.082031 66.542969 308.382812 C 98.839844 340.679688 141.785156 358.46875 187.460938 358.46875 C 233.140625 358.46875 276.082031 340.679688 308.382812 308.382812 C 340.679688 276.082031 358.46875 233.140625 358.46875 187.460938 C 358.46875 141.785156 340.679688 98.839844 308.382812 66.542969 Z M 134.835938 265.964844 L 122.257812 270.582031 L 108.769531 265.054688 L 119.328125 271.707031 L 129.304688 269.671875 C 131.058594 270.632812 130.34375 273.601562 127.78125 274.167969 L 116.535156 276.164062 L 103.542969 269.671875 L 112.417969 276.109375 L 119.523438 277.328125 L 109.679688 279.457031 L 76.816406 260.441406 C 40.050781 241.722656 19.875 207.058594 57.441406 206.375 C 68.980469 226.671875 79.429688 239.976562 88.785156 246.285156 L 106.28125 241.726562 L 121.042969 244.15625 L 130.273438 249.382812 C 131.75 254.621094 127.84375 255.230469 118.554688 251.207031 L 109.375 251.511719 L 117.433594 261 L 123.53125 263.867188 L 134.832031 261.046875 C 137.769531 260.488281 137.71875 264.996094 134.835938 265.964844 Z M 37.519531 188.917969 L 54.273438 190.472656 L 42.699219 184.773438 L 57.5625 188.054688 L 48.746094 181.488281 L 60.839844 185.804688 L 52.890625 177.855469 L 64.464844 182.871094 L 59.109375 172.507812 L 66.367188 178.035156 L 65.503906 163.527344 L 69.992188 169.566406 L 72.933594 158.339844 L 84.164062 165.769531 C 73.363281 164.988281 68.40625 171.726562 69.300781 185.980469 C 63.007812 187.667969 58.691406 191.984375 56.347656 198.929688 C 54.101562 196.429688 46.445312 195.511719 33.371094 196.175781 L 50.996094 194.621094 Z M 68.214844 139.246094 L 68.214844 135.421875 L 63.253906 136.972656 L 63.953125 134.285156 L 61.125 133.859375 L 61.125 124.507812 L 63.253906 132.15625 L 67.789062 128.757812 L 65.375 134.003906 L 72.890625 131.164062 L 71.46875 136.832031 L 78.703125 133.859375 L 76.144531 139.816406 L 83.945312 138.253906 L 95.855469 148.03125 L 85.652344 142.785156 L 78.84375 144.335938 L 81.105469 142.078125 L 71.328125 142.078125 L 73.03125 138.394531 Z M 114.558594 130.59375 L 116.972656 137.398438 L 115.695312 138.535156 L 113.007812 130.460938 C 114.289062 124.78125 112.867188 122.609375 108.746094 123.941406 C 111.25 120.515625 110.828125 117.917969 107.480469 116.140625 C 109.558594 110.375 107.289062 106.878906 100.671875 105.652344 C 101.007812 100.179688 98.738281 97.625 93.867188 97.992188 C 91.910156 93.96875 88.175781 92.21875 82.667969 92.75 C 85.796875 90.933594 89.671875 91.644531 94.292969 94.878906 C 99.207031 94.617188 102.5625 97.734375 104.355469 104.230469 C 110.15625 104.136719 112.425781 108.390625 111.160156 116.992188 C 115.726562 119.367188 116.859375 123.902344 114.558594 130.59375 Z M 146.15625 135.621094 C 143.375 133.953125 140.449219 131.941406 137.804688 130.144531 C 139.839844 132.527344 142.046875 134.804688 143.914062 137.253906 C 141.03125 134.648438 137.582031 132.203125 134.636719 129.390625 C 136.136719 132.417969 137.414062 135.796875 138.898438 138.839844 C 136.410156 135.804688 133.035156 132.480469 130.726562 129.839844 C 132.101562 133.003906 133.238281 136.425781 134.519531 139.449219 C 132.175781 136.1875 128.964844 133.042969 126.425781 129.769531 C 127.269531 132.308594 127.703125 136.480469 128.488281 139.640625 C 128.535156 139.691406 128.589844 139.746094 128.636719 139.792969 C 128.730469 140.074219 128.9375 140.59375 128.878906 140.535156 C 128.722656 140.445312 128.632812 140.3125 128.613281 140.128906 C 128.570312 139.96875 128.527344 139.804688 128.488281 139.640625 C 125.789062 136.972656 122.0625 130.886719 119.984375 127.605469 C 124.761719 125.796875 131.867188 122.609375 136.445312 122.296875 L 136.445312 122.921875 C 138.195312 124.835938 143.378906 131.691406 146.15625 135.621094 Z M 183.367188 127.3125 L 177.382812 109.367188 L 177.382812 124.730469 L 172.535156 111.179688 L 172.535156 126.40625 L 168.59375 114.894531 L 167.6875 127.3125 L 164.742188 116.027344 L 163.609375 126.40625 L 160.347656 112.542969 C 166.425781 106.691406 173.796875 104.09375 182.457031 104.746094 C 181.542969 110.277344 181.847656 117.796875 183.367188 127.3125 Z M 195.164062 69.535156 C 196.859375 70.8125 199.125 71.570312 200.847656 72.742188 C 199.285156 70.359375 197.925781 67.523438 196.242188 65.207031 C 198.023438 66.753906 200.429688 67.820312 202.277344 69.273438 C 200.835938 66.78125 199.695312 63.871094 198.21875 61.429688 C 199.980469 63.140625 202.277344 64.292969 204.074219 65.796875 C 202.695312 63.433594 201.832031 60.53125 200.515625 58.171875 C 202.03125 59.769531 204.347656 61.199219 205.894531 62.902344 C 204.851562 60.742188 204.257812 58.027344 203.152344 55.898438 C 204.429688 57.558594 206.648438 59.214844 207.992188 60.832031 C 207.144531 59.019531 206.859375 56.617188 206.03125 54.816406 C 208.449219 56.773438 211.890625 59.914062 212.949219 61.507812 L 212.828125 61.625 C 207.917969 63.980469 203.578125 69.511719 205.867188 75.121094 C 203.027344 76.726562 200.742188 79.589844 199.328125 82.558594 C 198.90625 78.609375 196.210938 75.257812 193.359375 72.371094 C 193.355469 72.371094 193.351562 72.367188 193.347656 72.367188 C 193.316406 72.332031 193.285156 72.296875 193.25 72.265625 C 193.28125 72.300781 193.3125 72.332031 193.347656 72.363281 C 193.351562 72.367188 193.355469 72.367188 193.359375 72.371094 C 195.519531 73.886719 198.042969 75.054688 200.25 76.449219 C 198.429688 74.292969 196.941406 71.75 195.164062 69.535156 Z M 197.269531 87.632812 L 201.570312 91.503906 C 203.027344 85.125 203.535156 82.582031 207.878906 82.042969 C 206.277344 75.652344 207.5625 68.386719 213.359375 65.59375 L 220.476562 67.183594 C 220.71875 69.039062 218.953125 70.351562 215.171875 71.121094 C 220.597656 71.789062 225.671875 71.304688 230.398438 69.675781 C 227.925781 73.117188 223.757812 74.960938 217.894531 75.203125 C 224.613281 75.664062 231.527344 75.136719 238.644531 73.617188 C 233.65625 77.40625 228.128906 79.960938 222.0625 81.273438 C 227.234375 82.351562 233.773438 81.113281 241.679688 77.558594 L 230.851562 84.898438 C 238.011719 86.609375 246.417969 86.574219 256.058594 84.804688 L 258.957031 85.664062 L 250.921875 86.003906 L 258.957031 86.941406 L 250.136719 88.285156 L 258.507812 88.84375 L 248.683594 90.746094 L 257.457031 90.746094 L 249.242188 93.476562 L 257.347656 93.476562 L 248.90625 95.714844 L 256.113281 95.714844 L 246.289062 99.117188 L 258.621094 97.394531 L 262.183594 83.484375 C 262.71875 83.355469 263.25 83.226562 263.792969 83.085938 C 263.46875 91.238281 261.925781 98.234375 259.171875 104.0625 L 254.550781 108.683594 C 250.53125 128.882812 240.488281 141.707031 224.414062 147.15625 C 209.628906 149.558594 192.683594 133.582031 192.683594 99.960938 C 179.351562 96.519531 195.40625 55.523438 197.269531 87.632812 Z M 222.101562 41.027344 C 247.847656 41.253906 264.757812 56.890625 266.324219 69.085938 L 251.066406 71.167969 L 260.988281 66.585938 L 246.902344 65.828125 L 258.148438 61.8125 L 243.835938 61.8125 L 253.375 56.855469 L 236.792969 56.097656 L 246.105469 51.894531 L 230.316406 52.460938 L 239.253906 48.488281 L 225.359375 48.488281 L 232.96875 45.417969 L 220.207031 46.175781 L 228.195312 42.011719 Z M 242.59375 82.28125 C 242.585938 82.28125 242.582031 82.28125 242.578125 82.28125 C 242.570312 82.28125 242.5625 82.28125 242.554688 82.28125 C 242.460938 82.289062 242.351562 82.296875 242.257812 82.28125 C 242.347656 82.277344 242.464844 82.265625 242.554688 82.28125 C 242.5625 82.28125 242.570312 82.28125 242.578125 82.28125 C 242.585938 82.28125 242.589844 82.28125 242.59375 82.28125 C 249.882812 81.566406 256.945312 78.664062 263.050781 74.855469 C 263.203125 74.921875 263.4375 75.078125 263.621094 75.003906 C 264.011719 75.96875 263.214844 75.972656 262.746094 76.585938 L 263.046875 76.058594 C 259.554688 80.636719 249.082031 83.308594 242.59375 82.28125 Z M 244.890625 76.417969 C 249.429688 75.886719 254.835938 74.460938 258.5 72.949219 L 258.140625 73.1875 C 254.730469 76.421875 249.546875 77.058594 244.890625 76.417969 Z M 268.296875 147.574219 C 265.585938 149.558594 262.269531 151.875 258.613281 152.820312 C 260.609375 150.800781 262.457031 148.21875 264.460938 146.273438 C 262.1875 148.070312 259.40625 149.546875 257.09375 151.300781 C 259.308594 148.753906 261.113281 145.773438 263.273438 143.21875 C 260.296875 145.636719 256.851562 147.347656 253.8125 149.59375 C 257.042969 145.851562 259.714844 142.550781 262.046875 138.472656 C 267.546875 141.058594 268.054688 144.453125 266.964844 148.523438 Z M 172.953125 200.832031 C 176.582031 190.753906 178.023438 179.898438 173.613281 169.816406 L 169.421875 162.1875 C 171.050781 162.40625 186.941406 175.8125 192.722656 178.050781 C 188.925781 177.671875 184.800781 178.546875 181.183594 178.324219 C 185.394531 180.101562 189.878906 183.078125 194.539062 184.441406 C 190.40625 183.785156 186.015625 184.109375 181.902344 183.5625 C 186.519531 185.683594 191.136719 188.734375 195.742188 190.546875 C 191.089844 189.675781 186.210938 190.011719 181.457031 189.441406 C 187.035156 192.402344 193.070312 195.058594 198.710938 197.632812 C 193.417969 196.367188 187.902344 196.183594 182.546875 195.65625 C 189.554688 199.886719 197.332031 203.742188 204.355469 208.1875 C 199.734375 206.824219 194.726562 206.574219 190.132812 205.425781 C 195.628906 208.984375 201.289062 212.796875 206.472656 216.578125 C 202.257812 215.066406 197.359375 214.777344 193.171875 213.472656 C 197.351562 216.820312 202.351562 221.101562 206.695312 224.578125 C 201.363281 222.589844 196.042969 220.519531 190.542969 219.097656 C 192 208.457031 181.753906 202.578125 172.953125 200.832031 Z M 176.242188 230.265625 C 157.265625 236.734375 130.238281 238.417969 95.160156 235.328125 C 115.222656 241.125 138.949219 242.351562 166.335938 239.015625 L 126.488281 245.003906 L 106.445312 239.476562 L 94.230469 241.757812 L 89.609375 238.136719 L 95.136719 238.136719 L 87.167969 235.050781 L 91.945312 234.113281 L 83.140625 230.546875 L 85.851562 229.335938 L 78.175781 223.617188 L 83.890625 223.617188 L 74.710938 219.300781 L 83.515625 220.613281 L 67.121094 212 C 73.140625 224.332031 80.988281 234.472656 90.652344 242.425781 L 89.171875 242.703125 C 77.277344 234.203125 68.449219 222.144531 62.679688 206.535156 C 116.304688 231.496094 157.535156 233.1875 186.375 211.605469 C 175.90625 229.386719 142.042969 234.839844 84.792969 227.960938 C 119.519531 234.492188 150 235.257812 176.242188 230.265625 Z M 85.46875 172.253906 L 80.835938 175.132812 L 87.554688 174.105469 L 83.21875 177.78125 L 92.15625 176.855469 L 86.363281 180.527344 L 96.261719 177.78125 L 90.601562 183.441406 L 100.597656 182.25 L 95.730469 185.691406 L 105.199219 185.164062 L 100.066406 188.96875 L 108.472656 188.175781 L 103.742188 191.847656 L 112.183594 191.453125 L 108.34375 194.101562 L 114.929688 193.074219 L 111.652344 196.351562 L 116.914062 196.75 L 114.136719 198.4375 L 120.179688 199.648438 L 115.832031 206.898438 C 108.957031 192.359375 99.453125 189.308594 87.320312 197.742188 C 83.90625 190.324219 79.152344 186.148438 73.058594 185.222656 C 75.125 178.1875 77.867188 173.394531 81.28125 170.828125 L 82.421875 171.988281 L 80.4375 173.976562 Z M 141.460938 145.730469 L 144.453125 144.578125 L 150.210938 152.175781 L 161.957031 151.257812 L 152.976562 152.875 L 161.957031 157.703125 L 149.289062 155.632812 L 143.300781 159.550781 L 147.21875 153.332031 Z M 158.734375 189.722656 L 166.792969 189.722656 L 156.886719 186.273438 L 165.183594 186.273438 L 157.117188 181.664062 L 165.414062 181.664062 L 157.347656 176.136719 L 164.953125 176.136719 L 155.277344 170.148438 L 163.34375 170.835938 L 154.128906 166.460938 L 160.804688 166.460938 L 154.128906 158.171875 C 169.8125 162.320312 175.03125 175.757812 169.789062 198.480469 L 160.117188 194.5625 L 163.804688 194.5625 Z M 151.359375 158.863281 C 150.132812 163.164062 150.132812 169.6875 151.359375 178.4375 C 146.453125 168.910156 146.453125 162.386719 151.359375 158.863281 Z M 154.257812 197.363281 L 150.21875 203.566406 L 142.570312 206.351562 L 152.566406 205.820312 L 149.289062 216.875 L 156.011719 206.351562 L 163.625 213.964844 L 157.332031 202.90625 L 163.359375 200.554688 L 153.890625 201.085938 L 154.945312 197.183594 C 155.058594 197.152344 155.164062 197.121094 155.277344 197.09375 C 165.496094 197.941406 171.5625 202.703125 173.472656 211.371094 C 166.035156 217.523438 158.742188 221.058594 149.289062 223.8125 C 147.871094 217.8125 144.492188 213.816406 139.152344 211.828125 C 138.800781 207.023438 141.257812 203.195312 146.511719 200.34375 C 145.324219 200.433594 144.214844 200.78125 143.1875 201.394531 C 141.484375 194.46875 137.324219 190.90625 131.441406 191.117188 C 135.566406 190.074219 140.652344 193.117188 146.699219 200.25 C 148.789062 199.136719 151.304688 198.175781 154.257812 197.363281 Z M 135.089844 195.953125 L 130.585938 197.777344 L 135.222656 197.777344 L 131.117188 200.292969 L 136.777344 199.628906 L 132.574219 202.277344 L 137.96875 201.617188 L 135.71875 203.867188 L 140.210938 204.199219 C 139.214844 205.550781 138.324219 207.25 137.542969 209.304688 C 134.046875 203.953125 129.132812 201.957031 122.800781 203.316406 C 124.5 197.574219 126.675781 193.832031 129.3125 192.078125 L 134.292969 194.101562 L 129.824219 195.953125 Z M 122.109375 189.035156 L 124.179688 183.046875 L 114.972656 180.746094 L 122.339844 177.058594 L 112.203125 175.675781 L 120.039062 171.761719 L 108.753906 171.070312 L 116.582031 166.921875 L 104.835938 166.230469 L 113.359375 161.851562 L 101.835938 161.851562 L 108.753906 156.554688 L 99.765625 156.554688 L 106.675781 153.335938 L 97.464844 151.488281 C 98.886719 147.488281 102.957031 146.644531 109.671875 148.957031 L 133.855469 186.042969 C 130.167969 184.210938 126.253906 185.207031 122.109375 189.035156 Z M 121.941406 196.714844 L 121.300781 197.78125 C 108.085938 182.035156 95.140625 172.789062 82.457031 170.046875 C 91.394531 164.878906 104.554688 173.765625 121.941406 196.714844 Z M 87.609375 199.628906 C 98.5 192.414062 107.714844 195.90625 115.25 210.105469 C 129.152344 203.394531 139.042969 208.390625 144.921875 225.089844 L 104.628906 220.871094 L 64.335938 206.171875 C 66.898438 186.566406 74.65625 184.382812 87.609375 199.628906 Z M 232.699219 177.246094 C 233.953125 176.828125 235.558594 176.78125 236.84375 176.535156 C 234.070312 176.148438 230.898438 175.136719 227.988281 174.726562 C 229.257812 174.585938 230.964844 174.339844 232.332031 173.96875 C 228.78125 173.660156 224.976562 171.273438 223.09375 170.183594 C 222.625 170.179688 222.160156 170.183594 221.695312 170.207031 L 222.457031 169.828125 C 222.632812 169.917969 222.847656 170.042969 223.09375 170.183594 C 233.121094 170.269531 244.269531 176.46875 250.277344 184.664062 C 250.363281 184.699219 250.472656 185.042969 250.539062 185.199219 C 250.582031 185.214844 250.617188 185.234375 250.621094 185.25 C 250.636719 185.394531 250.617188 185.398438 250.566406 185.261719 C 250.558594 185.25 250.550781 185.226562 250.539062 185.199219 C 250.300781 185.121094 249.59375 185.074219 249.515625 185.03125 C 246.148438 183.847656 242.492188 182.183594 238.5 181.039062 C 240.097656 180.8125 241.757812 180.433594 243.171875 180.144531 C 239.792969 179.546875 235.761719 177.773438 232.699219 177.246094 Z M 257.035156 189.417969 C 249.722656 195.3125 239.042969 193.5625 224.992188 184.171875 L 213.9375 169.738281 C 228.988281 184.367188 243.351562 190.925781 257.035156 189.417969 Z M 253.480469 206.285156 C 227.773438 209.21875 212.316406 199.441406 207.105469 176.953125 C 216.808594 191.527344 232.269531 201.304688 253.480469 206.285156 Z M 203.210938 177.515625 C 198.226562 169.367188 200.21875 164.820312 209.191406 163.878906 C 204.640625 167.917969 202.648438 172.464844 203.210938 177.515625 Z M 242.984375 217.339844 L 230.238281 237.199219 L 246.261719 221.179688 L 240.734375 238.042969 L 251.609375 220.335938 L 248.230469 235.792969 L 268.476562 186.984375 C 262.601562 217.917969 257.042969 236.3125 251.789062 242.164062 C 244.800781 244.242188 229.25 244.242188 205.132812 242.164062 C 221.121094 238.914062 233.742188 230.636719 242.984375 217.339844 Z M 215.625 165.898438 C 235.035156 164.488281 251.179688 161.582031 265.5 150.757812 L 269.78125 150.15625 C 253.636719 163.175781 235.585938 168.421875 215.625 165.898438 Z M 217.035156 160.933594 C 232.679688 154.722656 245.652344 150.125 256.675781 139.410156 L 259.289062 138.820312 C 247.457031 152.9375 233.371094 160.308594 217.035156 160.933594 Z M 254.789062 138.445312 L 254.789062 138.0625 C 253.835938 138.703125 250.5 140.527344 248.726562 141.453125 C 250.480469 139.453125 252.085938 136.777344 253.804688 134.855469 C 251.902344 136.402344 249.757812 137.832031 247.824219 139.417969 C 249.578125 137.378906 251.050781 134.824219 252.859375 132.765625 C 250.523438 134.242188 247.722656 135.277344 245.347656 136.945312 C 246.347656 134.90625 248.839844 132.390625 250.410156 130.726562 C 257.207031 131.101562 257.101562 133.449219 254.789062 138.445312 Z M 189.445312 103.382812 L 189.816406 103.878906 C 190.417969 105.128906 191.773438 115.125 192.542969 119.546875 C 191.648438 117.269531 190.453125 115.140625 189.6875 112.820312 C 190.175781 115.820312 190.316406 119.074219 190.597656 122.023438 C 189.390625 119.234375 188.316406 116.917969 187.839844 113.890625 C 187.675781 117.152344 187.417969 120.507812 187.09375 123.753906 C 185.925781 118.582031 185.195312 113.226562 185.015625 107.980469 C 187.308594 107 187.898438 104.589844 189.445312 103.382812 Z M 185.945312 132.160156 C 190.421875 142.609375 195.722656 150.8125 201.847656 156.765625 C 193.925781 154.734375 186.296875 145.898438 178.972656 130.257812 Z M 188.667969 154.636719 C 178.015625 150.339844 169.816406 142.136719 164.0625 130.03125 C 172.027344 139.8125 180.230469 148.015625 188.667969 154.636719 Z M 196.378906 164.675781 C 196.480469 161.207031 199.359375 159.171875 205.023438 158.578125 C 200.472656 162.617188 198.480469 167.164062 199.042969 172.214844 C 197.839844 170.25 197.046875 168.492188 196.65625 166.945312 C 182.753906 165.398438 168.902344 155.929688 155.097656 138.539062 C 172.6875 152.796875 186.445312 161.507812 196.378906 164.675781 Z M 157.3125 132.613281 L 150.875 120.421875 L 154.589844 133.066406 L 146.796875 123.371094 L 152.011719 136.324219 L 141.949219 121.78125 C 143.910156 117.757812 148.957031 114.601562 157.085938 112.3125 L 158.984375 124.957031 L 155.046875 119.515625 Z M 120.039062 138.820312 L 122.339844 141.121094 L 126.257812 140.429688 C 137.324219 153.164062 145 168.058594 149.289062 185.117188 L 150.898438 190.644531 L 134.085938 182.125 L 142.378906 180.515625 L 132.015625 177.519531 L 140.074219 174.519531 L 130.40625 170.839844 L 137.082031 168.53125 L 126.488281 165.082031 L 134.085938 163.003906 L 123.03125 157.476562 L 131.324219 156.09375 L 121.648438 152.410156 L 127.636719 149.648438 L 119.808594 148.496094 L 126.488281 145.5 L 115.433594 143.429688 C 115.289062 139.582031 116.824219 138.046875 120.039062 138.820312 Z M 96.707031 107.214844 C 104.007812 107.5625 106.695312 112.808594 104.78125 122.945312 C 108.882812 123.324219 109.785156 125.832031 107.480469 130.460938 L 113.007812 140.523438 L 105.917969 132.15625 C 107.0625 127.804688 105.878906 124.828125 102.367188 123.230469 C 103.832031 116.785156 101.425781 111.867188 95.144531 108.480469 C 93.78125 104.195312 88.914062 100.890625 80.539062 98.5625 C 88.230469 96.992188 93.617188 99.875 96.707031 107.214844 Z M 82.8125 119.40625 C 87.3125 115.359375 91.472656 119.089844 95.289062 130.59375 L 104.78125 146.195312 L 101.667969 145.34375 L 94.71875 135.28125 C 91.449219 125.753906 87.382812 121.40625 82.527344 122.234375 C 77.445312 115.226562 70.5 111.730469 61.691406 111.746094 C 71.300781 110.347656 78.339844 112.902344 82.8125 119.40625 Z M 64.664062 120.246094 C 70.003906 117.214844 74.019531 118.820312 76.714844 125.066406 C 82.324219 122.691406 86.007812 124.960938 87.769531 131.871094 C 90.988281 131.90625 94.628906 136.871094 98.683594 146.761719 C 93.617188 138.601562 89.554688 134.109375 86.492188 133.292969 C 84.511719 127 81.207031 125.0625 76.574219 127.480469 C 73.414062 122.144531 69.632812 120.679688 65.234375 123.085938 C 63.144531 119.699219 59.742188 117.667969 55.027344 116.992188 C 58.726562 113.132812 61.941406 114.21875 64.664062 120.246094 Z M 51.199219 200.640625 C 41.613281 200.292969 35.75 202.832031 33.605469 208.261719 C 32.648438 199.191406 38.511719 196.648438 51.199219 200.640625 Z M 168.121094 273.742188 L 160.339844 271.636719 L 168.25 272.523438 L 175.734375 272.273438 Z M 175.914062 271.433594 L 159.875 271.339844 C 155.484375 269.410156 151.378906 269.234375 151.824219 264.660156 L 162.113281 267.238281 L 173.089844 265.402344 L 162.308594 265.730469 L 149.789062 262.902344 C 144.277344 259.332031 141.820312 257.226562 143.769531 252.886719 L 152.007812 258.105469 L 161.246094 259.386719 L 171.433594 257.492188 L 160.78125 257.136719 L 153.769531 255.652344 C 146.375 252.710938 142.457031 249.875 141.226562 247.695312 L 149.363281 246.851562 L 160.058594 250.699219 L 172.484375 248.851562 L 182.734375 243.199219 C 185.53125 241.527344 186.160156 237.214844 183.929688 231.703125 L 187.703125 223.710938 C 196.167969 232.683594 197.078125 240.058594 201.011719 244.136719 C 219.792969 246.640625 242.714844 247.203125 269.78125 245.824219 C 277.847656 254.632812 279.785156 263.1875 275.589844 271.496094 C 263.511719 273.605469 245.460938 270.761719 221.4375 262.972656 C 242.746094 271.535156 259.707031 277.0625 272.3125 279.554688 C 266.722656 283.746094 243.480469 279.308594 202.601562 266.25 Z M 276.71875 175.828125 L 284.214844 168.328125 L 278.125 168.992188 L 280.835938 159.0625 C 293.878906 181.847656 297.75 209.019531 292.457031 240.578125 L 278.125 232.234375 L 288.617188 232.234375 L 279.25 226.425781 L 291.332031 226.425781 L 278.683594 222.023438 L 292.175781 218.464844 L 279.992188 217.058594 L 291.894531 209.839844 L 279.992188 209.839844 L 292.175781 203.46875 L 279.710938 203.46875 L 290.023438 195.507812 L 277.277344 197.097656 L 287.773438 186.605469 L 277.277344 190.261719 L 285.519531 182.019531 L 275.589844 183.046875 L 284.675781 173.960938 Z M 282.0625 250.839844 C 284.5625 252.953125 286.886719 255.574219 288.476562 258.273438 C 288.097656 254.109375 286.363281 250.179688 284.007812 246.792969 C 286.191406 248.890625 288.21875 250.5 289.972656 252.929688 C 289.28125 248.785156 286.851562 245.0625 283.5 242.507812 C 291.746094 246.542969 297.257812 254.859375 294.113281 264.085938 L 293.992188 264.632812 C 293.746094 267.183594 293.261719 268.976562 291.613281 271.109375 C 277.636719 289.1875 282.554688 257.476562 279.207031 252.1875 C 281.632812 254.605469 283.8125 257.484375 285.710938 260.398438 C 285.421875 257.078125 284.011719 253.628906 282.0625 250.839844 Z M 240.175781 342.90625 L 229.746094 341.203125 L 246.023438 339.988281 L 227.914062 335.367188 L 243.265625 332.304688 L 225.757812 327.699219 L 242.035156 326.160156 L 222.078125 322.480469 L 241.109375 321.25 L 218.996094 315.71875 L 239.277344 312.65625 L 223.925781 306.203125 L 241.417969 306.203125 L 202.414062 298.210938 L 240.800781 298.210938 L 212.253906 292.066406 L 241.109375 294.222656 L 214.703125 285.015625 L 251.261719 288.695312 L 242.652344 306.203125 L 255.488281 336.832031 C 250.511719 339.101562 245.40625 341.136719 240.175781 342.90625 Z M 263.097656 333.113281 C 258.046875 323.019531 252.441406 313.378906 249.867188 306.539062 C 253.679688 302.699219 255.96875 295.921875 256.738281 286.199219 C 268.550781 288.21875 277.917969 287.285156 282.605469 283.847656 C 301.03125 282.597656 300.269531 256.433594 294.628906 246.699219 C 301.929688 193.566406 293.824219 158.089844 271.445312 147.460938 C 273.3125 141.167969 269.539062 138.03125 260.304688 134.878906 C 260.910156 131.207031 257.605469 128.050781 251.0625 128.21875 C 254.921875 122.964844 257.167969 117.683594 256.816406 110.273438 L 261.4375 104.519531 C 265.425781 97.21875 267.722656 87.171875 267.417969 78.011719 C 283.230469 51.792969 220.460938 21.695312 199.042969 45.535156 C 189.152344 52.949219 181.300781 78.480469 186.730469 97.042969 C 187.125 98.398438 185.859375 101.277344 185.210938 101.929688 C 176.53125 99.082031 166.292969 101.65625 157.234375 109.796875 C 148.71875 110.769531 142.613281 113.765625 138.925781 118.78125 L 118.539062 125.347656 C 118.144531 119.992188 115.957031 116.765625 111.976562 115.671875 C 114.800781 105.714844 112.382812 101.339844 104.71875 102.542969 C 105.433594 96.429688 101.171875 93.089844 91.9375 92.523438 C 83.804688 87.628906 79.199219 89.242188 78.117188 97.359375 C 71.515625 97.710938 70.363281 102.546875 74.660156 111.871094 C 67.945312 106.898438 61.957031 107.011719 56.695312 112.21875 C 50.617188 116.828125 51.191406 123.28125 58.421875 131.566406 C 56.402344 135.511719 60.894531 140.925781 71.894531 147.804688 C 55.636719 161.722656 45.386719 173.703125 41.144531 183.738281 C 29.558594 190.53125 26.449219 198.941406 31.816406 208.960938 C 34.3125 232.175781 43.457031 248.828125 74.148438 263.320312 C 84.84375 268.371094 93.640625 278.222656 107.675781 282.640625 C 106.296875 292.554688 106.445312 300.183594 107.828125 309.15625 C 105.945312 315.175781 103.316406 321.050781 100.609375 326.703125 C 101.296875 327.128906 101.988281 327.558594 102.679688 327.984375 C 55.144531 299.242188 23.367188 247.0625 23.367188 187.460938 C 23.367188 96.832031 96.835938 23.363281 187.460938 23.363281 C 278.089844 23.363281 351.558594 96.832031 351.558594 187.460938 C 351.558594 250.808594 315.65625 305.765625 263.097656 333.113281 Z M 83.484375 212.671875 L 92.683594 207.277344 L 89.671875 201.617188 L 92.15625 199.761719 L 96.394531 206.082031 L 102.683594 199.796875 L 98.875 209.625 L 101.257812 219.222656 L 94.539062 211.875 Z M 115.855469 214.359375 L 107.449219 212.539062 L 117.710938 212.539062 L 125.457031 209.757812 L 119.664062 214.753906 L 123.105469 221.609375 L 116.785156 216.347656 L 110.0625 220.152344 Z M 69.148438 195.691406 L 72.957031 190.957031 C 83.839844 195.984375 87.171875 202.207031 82.953125 209.625 L 79.675781 209.890625 L 81.628906 206.878906 L 76.761719 207.410156 L 81.761719 203.832031 L 75.835938 205.289062 L 81.097656 201.746094 L 73.222656 202.507812 L 79.410156 199.363281 L 71.898438 199.363281 L 76.761719 196.75 L 70.703125 197.511719 L 75.4375 194.367188 Z M 54.1875 207.511719 C 60.429688 218.527344 69.832031 230.644531 82.390625 243.855469 L 70.019531 242.164062 L 75.734375 240.015625 L 65.992188 239.078125 L 73.210938 236.074219 L 63.09375 235.425781 L 70.582031 232.609375 L 61.96875 231.671875 L 67.308594 229.710938 L 59.339844 229.710938 L 63.929688 225.121094 L 56.4375 225.121094 L 59.527344 222.03125 L 54.375 222.03125 L 57.75 218.652344 L 53.808594 218.652344 L 56.8125 215.648438 L 50.535156 215.648438 L 55.3125 213.3125 L 49.785156 212 Z M 195.574219 99.050781 L 204.890625 106.277344 L 196.78125 102.488281 L 204.03125 109.738281 L 196.953125 107.160156 L 205.75 115.957031 L 197.984375 111.976562 L 205.921875 119.914062 L 197.640625 115.957031 L 206.4375 124.753906 L 198.84375 120.449219 L 206.4375 128.902344 L 200.566406 126.816406 L 207.320312 133.570312 L 201.277344 129.9375 L 208.527344 140.820312 C 197.003906 132.773438 193.378906 117.730469 195.574219 99.050781 Z M 224.785156 98.328125 L 216.5625 94.863281 L 224.007812 94.328125 L 234.753906 101.996094 C 230.589844 110.355469 224.675781 104.984375 218.613281 102.398438 L 224.484375 101.953125 L 219.34375 98.992188 Z M 223.375 122.867188 C 230.273438 124.171875 235.972656 125.816406 237.871094 124.511719 L 241.125 104.449219 L 254.054688 102.976562 L 253.789062 106.855469 L 252.046875 104.984375 L 247.589844 106.589844 L 250.800781 108.90625 L 246.125 109.027344 L 249.871094 111.6875 L 242.980469 111.988281 L 241.230469 127.566406 L 227.917969 129.601562 Z M 216.832031 127.628906 C 222.195312 130.644531 227.363281 132.753906 232.34375 133.960938 C 227 136.742188 221.828125 134.632812 216.832031 127.628906 Z M 216.25 133.359375 C 218.863281 135.335938 220.816406 137.792969 227.398438 139.269531 C 219.742188 142.761719 216.652344 139.941406 216.25 133.359375 Z M 191.628906 81.140625 L 194.742188 85.460938 L 193.882812 95.164062 C 190.492188 94.03125 189.980469 91.828125 192.339844 88.546875 Z M 207.453125 252.683594 C 207.457031 252.683594 207.457031 252.679688 207.457031 252.679688 C 207.460938 252.679688 207.460938 252.679688 207.460938 252.683594 C 207.46875 252.753906 207.484375 252.820312 207.503906 252.886719 C 207.480469 252.820312 207.464844 252.753906 207.453125 252.683594 Z M 207.457031 252.679688 C 206.078125 250.839844 204.457031 247.578125 203.238281 245.660156 C 208.984375 246.648438 215.066406 247.585938 220.890625 247.960938 C 236.035156 248.933594 252.558594 249.386719 267.300781 249.136719 L 266.828125 249.375 C 269.054688 251.078125 271.097656 252.574219 272.460938 255.214844 C 270.347656 255.082031 267.472656 253.851562 265.464844 253.167969 C 265.21875 253.671875 266.496094 256.78125 266.074219 256.894531 C 264.441406 256.023438 263.351562 253.628906 262.117188 252.402344 C 261.15625 253.863281 262.101562 255.644531 261.851562 257.121094 C 260.179688 255.71875 259 253.394531 257.40625 252.0625 C 257 252.910156 257.167969 255.65625 256.652344 256.183594 C 255.386719 254.953125 254.992188 252.953125 253.871094 251.8125 C 252.859375 252.964844 253.703125 254.828125 253.355469 256.183594 C 251.625 254.859375 250.652344 252.625 249.394531 251.226562 C 248.796875 252.347656 248.960938 254.898438 248.230469 255.886719 C 246.980469 254.65625 246.457031 252.246094 245.441406 251.277344 C 244.78125 252.675781 245.355469 254.503906 244.878906 255.941406 C 243.554688 254.960938 241.929688 252.792969 240.734375 251.984375 C 240.152344 253.082031 241.226562 254.761719 240.632812 255.710938 C 239.070312 254.414062 238.457031 252.703125 237.386719 251.113281 C 236.605469 252.441406 237.257812 254.246094 236.875 255.714844 C 235.128906 254.496094 234.480469 252.429688 233.191406 251.277344 C 232.734375 252.800781 233.421875 254.632812 232.902344 256.109375 C 231.269531 254.929688 230.945312 252.675781 229.796875 251.277344 C 228.640625 252.40625 229.578125 254.535156 228.667969 255.648438 C 227.164062 253.980469 226.527344 251.839844 225.417969 250.335938 C 224.875 251.773438 225.378906 253.824219 224.722656 255.179688 C 223.160156 254.753906 222.914062 251.632812 222.121094 250.804688 C 221.417969 251.0625 221.601562 255.167969 221.3125 255.898438 C 219.578125 253.78125 218.890625 251.515625 217.589844 249.445312 C 216.667969 250.980469 217.820312 253.578125 217.078125 255.191406 C 215.519531 253.660156 214.960938 250.769531 213.574219 249.445312 C 212.527344 250.476562 214.183594 253.65625 213.304688 254.714844 C 211.085938 252.765625 209.632812 249.867188 207.75 247.796875 C 207.183594 248.261719 207.902344 252.488281 207.457031 252.679688 Z M 104.914062 243.546875 C 104.820312 243.597656 104.71875 243.644531 104.621094 243.695312 C 104.554688 243.6875 104.472656 243.679688 104.40625 243.671875 Z M 106.175781 244.992188 C 105.839844 245.945312 106.371094 247.164062 106.152344 248.21875 C 105.449219 247.644531 104.613281 246.140625 104.375 245.238281 C 104.011719 246.578125 104.023438 248.160156 103.617188 249.488281 C 103.101562 248.59375 102.992188 247.226562 102.484375 246.339844 C 102.160156 247.597656 102.050781 249.152344 101.722656 250.496094 C 100.820312 249.601562 100.507812 248.164062 99.691406 247.230469 C 99.320312 248.421875 99.382812 249.851562 99.0625 251.128906 C 98.328125 250.265625 98.03125 248.828125 97.320312 247.960938 C 96.976562 249.148438 96.964844 250.601562 96.65625 251.890625 C 96.007812 250.707031 95.050781 249.289062 94.402344 248.117188 C 94.371094 249.421875 94.421875 250.917969 94.503906 252.269531 C 93.457031 251.367188 92.761719 250.03125 91.898438 249.003906 C 91.335938 249.960938 92.152344 251.386719 91.753906 252.371094 C 90.804688 251.386719 89.917969 249.65625 89.101562 248.515625 C 94.355469 247.597656 100.011719 246.15625 104.621094 243.695312 C 106.578125 243.886719 109.816406 244.34375 112.121094 244.910156 C 110.164062 244.707031 108.078125 245.03125 106.175781 244.992188 Z M 200.378906 263.804688 L 199.996094 264.183594 C 192.152344 265.6875 182.878906 268.660156 174.441406 270.367188 C 175.019531 269.054688 175.960938 266.761719 176.707031 265.621094 C 177.3125 266.492188 177.605469 267.757812 178.324219 268.601562 C 178.640625 267.0625 179.007812 265.464844 179.386719 263.941406 C 180.175781 264.566406 180.757812 266.148438 181.484375 266.957031 C 181.777344 265.652344 181.9375 264.171875 182.429688 262.960938 C 182.859375 264.105469 183.308594 265.386719 183.785156 266.480469 C 184.195312 264.976562 185.320312 263.101562 185.726562 261.414062 C 185.878906 262.628906 186.480469 264.214844 186.609375 265.5625 C 187.117188 263.953125 188.359375 262.226562 188.855469 260.519531 C 189.0625 261.675781 189.636719 263.097656 189.867188 264.390625 C 190.175781 262.648438 191.292969 260.746094 191.675781 259.035156 C 192.125 260.230469 192.589844 261.648438 192.929688 262.90625 C 193.242188 261.699219 194 259.984375 194.402344 258.75 C 194.558594 260.179688 194.992188 261.636719 195.214844 263.03125 C 195.761719 261.375 197.007812 259.398438 197.46875 257.734375 C 197.429688 259.292969 197.753906 261.144531 197.714844 262.746094 C 198.070312 261.175781 198.957031 259.464844 199.371094 257.898438 C 199.296875 259.933594 200.285156 263.113281 200.378906 263.804688 Z M 200.378906 263.804688 "
              fill-opacity="1" fill-rule="evenodd"/>
    </g>
</svg>
